{
  "accessors": [
    {
      "bufferView": 2,
      "componentType": 5126,
      "count": 512,
      "max": [
        0.04918959364295006,
        0.3494527041912079,
        0.04926583915948868
      ],
      "min": [
        -0.049341458827257156,
        0.060437168926000595,
        -0.049265407025814056
      ],
      "type": "VEC3"
    },
    {
      "bufferView": 2,
      "byteOffset": 6144,
      "componentType": 5126,
      "count": 512,
      "max": [
        0.9999998807907104,
        1.0,
        1.0
      ],
      "min": [
        -0.9999998807907104,
        -1.0,
        -1.0
      ],
      "type": "VEC3"
    },
    {
      "bufferView": 1,
      "componentType": 5126,
      "count": 512,
      "max": [
        0.0,
        0.0
      ],
      "min": [
        0.0,
        0.0
      ],
      "type": "VEC2"
    },
    {
      "bufferView": 0,
      "componentType": 5125,
      "count": 3072,
      "type": "SCALAR"
    },
    {
      "bufferView": 2,
      "byteOffset": 12288,
      "componentType": 5126,
      "count": 512,
      "max": [
        0.04918959364295006,
        0.3494527041912079,
        0.04926583915948868
      ],
      "min": [
        -0.049341458827257156,
        0.060437168926000595,
        -0.049265407025814056
      ],
      "type": "VEC3"
    },
    {
      "bufferView": 2,
      "byteOffset": 18432,
      "componentType": 5126,
      "count": 512,
      "max": [
        0.9999998807907104,
        1.0,
        1.0
      ],
      "min": [
        -0.9999998807907104,
        -1.0,
        -1.0
      ],
      "type": "VEC3"
    },
    {
      "bufferView": 1,
      "byteOffset": 4096,
      "componentType": 5126,
      "count": 512,
      "max": [
        0.0,
        0.0
      ],
      "min": [
        0.0,
        0.0
      ],
      "type": "VEC2"
    },
    {
      "bufferView": 0,
      "byteOffset": 12288,
      "componentType": 5125,
      "count": 3072,
      "type": "SCALAR"
    },
    {
      "bufferView": 2,
      "byteOffset": 24576,
      "componentType": 5126,
      "count": 65532,
      "max": [
        0.0019552400335669518,
        0.03804878890514374,
        0.0019552637822926044
      ],
      "min": [
        -0.0019552467856556177,
        -0.0004749836807604879,
        -0.001955220475792885
      ],
      "type": "VEC3"
    },
    {
      "bufferView": 2,
      "byteOffset": 810960,
      "componentType": 5126,
      "count": 65532,
      "max": [
        0.9999946355819702,
        0.9942748546600342,
        0.9999998807907104
      ],
      "min": [
        -0.9999991655349731,
        -0.9943535327911377,
        -1.0
      ],
      "type": "VEC3"
    },
    {
      "bufferView": 1,
      "byteOffset": 8192,
      "componentType": 5126,
      "count": 65532,
      "max": [
        0.9997259378433228,
        1.0000001192092896
      ],
      "min": [
        0.0,
        0.0833333358168602
      ],
      "type": "VEC2"
    },
    {
      "bufferView": 0,
      "byteOffset": 24576,
      "componentType": 5125,
      "count": 351708,
      "type": "SCALAR"
    },
    {
      "bufferView": 2,
      "byteOffset": 1597344,
      "componentType": 5126,
      "count": 65532,
      "max": [
        0.00197358475998044,
        0.038398999720811844,
        0.0019552160520106554
      ],
      "min": [
        -0.001955270068719983,
        -0.00040641165105625987,
        -0.001955270767211914
      ],
      "type": "VEC3"
    },
    {
      "bufferView": 2,
      "byteOffset": 2383728,
      "componentType": 5126,
      "count": 65532,
      "max": [
        0.9999896287918091,
        0.9943637847900391,
        1.0
      ],
      "min": [
        -0.9999991655349731,
        -0.9942735433578491,
        -0.9999998807907104
      ],
      "type": "VEC3"
    },
    {
      "bufferView": 1,
      "byteOffset": 532448,
      "componentType": 5126,
      "count": 65532,
      "max": [
        0.9989035725593567,
        0.6875001192092896
      ],
      "min": [
        0.0,
        0.02083333395421505
      ],
      "type": "VEC2"
    },
    {
      "bufferView": 0,
      "byteOffset": 1431408,
      "componentType": 5125,
      "count": 370098,
      "type": "SCALAR"
    },
    {
      "bufferView": 2,
      "byteOffset": 3170112,
      "componentType": 5126,
      "count": 62570,
      "max": [
        0.001973541919142008,
        0.038516439497470856,
        0.0019552637822926044
      ],
      "min": [
        -0.001955214887857437,
        -0.00023748997773509473,
        -0.0019552113953977823
      ],
      "type": "VEC3"
    },
    {
      "bufferView": 2,
      "byteOffset": 3920952,
      "componentType": 5126,
      "count": 62570,
      "max": [
        0.9999991655349731,
        0.9980654716491699,
        0.9999874830245972
      ],
      "min": [
        -0.9999946355819702,
        -0.9982279539108276,
        -0.9999755620956421
      ],
      "type": "VEC3"
    },
    {
      "bufferView": 1,
      "byteOffset": 1056704,
      "componentType": 5126,
      "count": 62570,
      "max": [
        1.0000001192092896,
        1.0000001192092896
      ],
      "min": [
        0.0,
        0.0
      ],
      "type": "VEC2"
    },
    {
      "bufferView": 0,
      "byteOffset": 2911800,
      "componentType": 5125,
      "count": 333309,
      "type": "SCALAR"
    },
    {
      "bufferView": 2,
      "byteOffset": 4671792,
      "componentType": 5126,
      "count": 1027,
      "max": [
        1.1833969354629517,
        0.37789300084114075,
        1.1833964586257935
      ],
      "min": [
        -1.1833962202072144,
        -44.327880859375,
        -1.1833958625793457
      ],
      "type": "VEC3"
    },
    {
      "bufferView": 2,
      "byteOffset": 4684116,
      "componentType": 5126,
      "count": 1027,
      "max": [
        1.0,
        1.0,
        1.0
      ],
      "min": [
        -1.0,
        -0.9951846599578857,
        -1.0
      ],
      "type": "VEC3"
    },
    {
      "bufferView": 1,
      "byteOffset": 1557264,
      "componentType": 5126,
      "count": 1027,
      "max": [
        1.0000001192092896,
        1.0
      ],
      "min": [
        0.0,
        0.01000000536441803
      ],
      "type": "VEC2"
    },
    {
      "bufferView": 0,
      "byteOffset": 4245036,
      "componentType": 5125,
      "count": 3645,
      "type": "SCALAR"
    },
    {
      "bufferView": 2,
      "byteOffset": 4696440,
      "componentType": 5126,
      "count": 196,
      "max": [
        19.055599212646484,
        -43.425048828125,
        0.9027600884437561
      ],
      "min": [
        -19.053550720214844,
        -45.230587005615234,
        -0.9027776122093201
      ],
      "type": "VEC3"
    },
    {
      "bufferView": 2,
      "byteOffset": 4698792,
      "componentType": 5126,
      "count": 196,
      "max": [
        0.6857035160064697,
        1.0,
        1.0
      ],
      "min": [
        -0.6857134699821472,
        -1.0,
        -1.0
      ],
      "type": "VEC3"
    },
    {
      "bufferView": 1,
      "byteOffset": 1565480,
      "componentType": 5126,
      "count": 196,
      "max": [
        1.0,
        1.0
      ],
      "min": [
        0.0,
        0.01000000536441803
      ],
      "type": "VEC2"
    },
    {
      "bufferView": 0,
      "byteOffset": 4259616,
      "componentType": 5125,
      "count": 756,
      "type": "SCALAR"
    },
    {
      "bufferView": 2,
      "byteOffset": 4701144,
      "componentType": 5126,
      "count": 3874,
      "max": [
        0.08070997893810272,
        -0.648627758026123,
        0.02626710943877697
      ],
      "min": [
        -0.07619108259677887,
        -8.151711463928223,
        -0.032703861594200134
      ],
      "type": "VEC3"
    },
    {
      "bufferView": 2,
      "byteOffset": 4747632,
      "componentType": 5126,
      "count": 3874,
      "max": [
        0.9999998807907104,
        0.9992915391921997,
        1.0
      ],
      "min": [
        -0.9999998807907104,
        -0.9995545148849487,
        -1.0
      ],
      "type": "VEC3"
    },
    {
      "bufferView": 1,
      "byteOffset": 1567048,
      "componentType": 5126,
      "count": 3874,
      "max": [
        1.0,
        1.0
      ],
      "min": [
        0.0,
        0.0
      ],
      "type": "VEC2"
    },
    {
      "bufferView": 0,
      "byteOffset": 4262640,
      "componentType": 5125,
      "count": 21384,
      "type": "SCALAR"
    }
  ],
  "asset": {
    "extras": {
      "author": "wpswps (https://sketchfab.com/wpswps)",
      "license": "CC-BY-4.0 (http://creativecommons.org/licenses/by/4.0/)",
      "source": "https://sketchfab.com/3d-models/copper-iud-930890ede6754a729bee647f3ca18a5a",
      "title": "Copper IUD"
    },
    "generator": "Sketchfab-16.31.0",
    "version": "2.0"
  },
  "bufferViews": [
    {
      "buffer": 0,
      "byteLength": 4348176,
      "name": "floatBufferViews",
      "target": 34963
    },
    {
      "buffer": 0,
      "byteLength": 1598040,
      "byteOffset": 4348176,
      "byteStride": 8,
      "name": "floatBufferViews",
      "target": 34962
    },
    {
      "buffer": 0,
      "byteLength": 4794120,
      "byteOffset": 5946216,
      "byteStride": 12,
      "name": "floatBufferViews",
      "target": 34962
    }
  ],
  "buffers": [
    {
      "byteLength": 10740336,
      "uri": "scene.bin"
    }
  ],
  "materials": [
    {
      "doubleSided": true,
      "name": "Copper",
      "pbrMetallicRoughness": {
        "baseColorFactor": [
          0.838054,
          0.293697,
          0.0534836,
          1.0
        ],
        "metallicFactor": 0.8392408536,
        "roughnessFactor": 0.220166067
      }
    },
    {
      "doubleSided": true,
      "name": "Plastic",
      "pbrMetallicRoughness": {
        "baseColorFactor": [
          0.8,
          0.8,
          0.8,
          1.0
        ],
        "metallicFactor": 0.232558,
        "roughnessFactor": 0.244186
      }
    },
    {
      "doubleSided": true,
      "name": "thread",
      "pbrMetallicRoughness": {
        "baseColorFactor": [
          0.0481718,
          0.752943,
          0.799103,
          1.0
        ],
        "metallicFactor": 0.116279,
        "roughnessFactor": 0.94186
      }
    }
  ],
  "meshes": [
    {
      "name": "Object_0",
      "primitives": [
        {
          "attributes": {
            "NORMAL": 1,
            "POSITION": 0,
            "TEXCOORD_0": 2
          },
          "indices": 3,
          "material": 0,
          "mode": 4
        }
      ]
    },
    {
      "name": "Object_1",
      "primitives": [
        {
          "attributes": {
            "NORMAL": 5,
            "POSITION": 4,
            "TEXCOORD_0": 6
          },
          "indices": 7,
          "material": 0,
          "mode": 4
        }
      ]
    },
    {
      "name": "Object_2",
      "primitives": [
        {
          "attributes": {
            "NORMAL": 9,
            "POSITION": 8,
            "TEXCOORD_0": 10
          },
          "indices": 11,
          "material": 0,
          "mode": 4
        }
      ]
    },
    {
      "name": "Object_3",
      "primitives": [
        {
          "attributes": {
            "NORMAL": 13,
            "POSITION": 12,
            "TEXCOORD_0": 14
          },
          "indices": 15,
          "material": 0,
          "mode": 4
        }
      ]
    },
    {
      "name": "Object_4",
      "primitives": [
        {
          "attributes": {
            "NORMAL": 17,
            "POSITION": 16,
            "TEXCOORD_0": 18
          },
          "indices": 19,
          "material": 0,
          "mode": 4
        }
      ]
    },
    {
      "name": "Object_5",
      "primitives": [
        {
          "attributes": {
            "NORMAL": 21,
            "POSITION": 20,
            "TEXCOORD_0": 22
          },
          "indices": 23,
          "material": 1,
          "mode": 4
        }
      ]
    },
    {
      "name": "Object_6",
      "primitives": [
        {
          "attributes": {
            "NORMAL": 25,
            "POSITION": 24,
            "TEXCOORD_0": 26
          },
          "indices": 27,
          "material": 1,
          "mode": 4
        }
      ]
    },
    {
      "name": "Object_7",
      "primitives": [
        {
          "attributes": {
            "NORMAL": 29,
            "POSITION": 28,
            "TEXCOORD_0": 30
          },
          "indices": 31,
          "material": 2,
          "mode": 4
        }
      ]
    }
  ],
  "nodes": [
    {
      "children": [
        1
      ],
      "matrix": [
        1.0,
        0.0,
        0.0,
        0.0,
        0.0,
        2.220446049250313e-16,
        -1.0,
        0.0,
        0.0,
        1.0,
        2.220446049250313e-16,
        0.0,
        0.0,
        0.0,
        0.0,
        1.0
      ],
      "name": "Sketchfab_model"
    },
    {
      "children": [
        2
      ],
      "name": "root"
    },
    {
      "children": [
        3,
        5,
        7,
        11,
        13,
        15
      ],
      "matrix": [
        1.0,
        0.0,
        0.0,
        0.0,
        0.0,
        2.220446049250313e-16,
        1.0,
        0.0,
        0.0,
        -1.0,
        2.220446049250313e-16,
        0.0,
        0.0,
        0.0,
        0.0,
        1.0
      ],
      "name": "GLTF_SceneRootNode"
    },
    {
      "children": [
        4
      ],
      "matrix": [
        0.0,
        -1.0818532705307007,
        -0.0,
        0.0,
        1.0818532705307007,
        0.0,
        0.0,
        0.0,
        0.0,
        0.0,
        1.0818532705307007,
        0.0,
        0.2302836775779724,
        1.3875889778137207,
        -0.0010736286640167236,
        1.0
      ],
      "name": "Circle_2"
    },
    {
      "mesh": 0,
      "name": "Object_4"
    },
    {
      "children": [
        6
      ],
      "matrix": [
        0.0,
        -1.0818532705307007,
        -0.0,
        0.0,
        1.0818532705307007,
        0.0,
        0.0,
        0.0,
        0.0,
        0.0,
        1.0818532705307007,
        0.0,
        -0.7106375694274902,
        1.3841922283172607,
        -0.0010736286640167236,
        1.0
      ],
      "name": "Circle.001_3"
    },
    {
      "mesh": 1,
      "name": "Object_6"
    },
    {
      "children": [
        8,
        9,
        10
      ],
      "matrix": [
        43.76949691772461,
        0.0,
        0.0,
        0.0,
        0.0,
        43.76949691772461,
        0.0,
        0.0,
        0.0,
        0.0,
        43.76949691772461,
        0.0,
        0.007058262825012207,
        -0.346998006105423,
        -0.0010736286640167236,
        1.0
      ],
      "name": "Spiral.003_4"
    },
    {
      "mesh": 2,
      "name": "Object_8"
    },
    {
      "mesh": 3,
      "name": "Object_9"
    },
    {
      "mesh": 4,
      "name": "Object_10"
    },
    {
      "children": [
        12
      ],
      "matrix": [
        -0.046544261276721954,
        0.0,
        0.0,
        -0.0,
        -0.0,
        -0.046544261276721954,
        0.0,
        -0.0,
        -0.0,
        0.0,
        -0.046544261276721954,
        -0.0,
        0.007058262825012207,
        -0.6754487752914429,
        -0.0010736286640167236,
        1.0
      ],
      "name": "Sphere.001_5"
    },
    {
      "mesh": 5,
      "name": "Object_12"
    },
    {
      "children": [
        14
      ],
      "matrix": [
        -0.046544261276721954,
        0.0,
        0.0,
        -0.0,
        -0.0,
        -0.046544261276721954,
        0.0,
        -0.0,
        -0.0,
        0.0,
        -0.046544261276721954,
        -0.0,
        0.007058262825012207,
        -0.6754487752914429,
        -0.0010736286640167236,
        1.0
      ],
      "name": "Sphere.002_6"
    },
    {
      "mesh": 6,
      "name": "Object_14"
    },
    {
      "children": [
        16
      ],
      "matrix": [
        1.0,
        0.0,
        0.0,
        0.0,
        0.0,
        1.0,
        0.0,
        0.0,
        0.0,
        0.0,
        1.0,
        0.0,
        0.0,
        0.0005402814131230116,
        0.009184785187244415,
        1.0
      ],
      "name": "NurbsCurve.001_8"
    },
    {
      "mesh": 7,
      "name": "Object_16"
    }
  ],
  "scene": 0,
  "scenes": [
    {
      "name": "Sketchfab_Scene",
      "nodes": [
        0
      ]
    }
  ]
}
